<svg width="20" height="17" viewBox="0 0 20 17" fill="none" xmlns="http://www.w3.org/2000/svg">
<path d="M0.634662 1.2493C0.292921 1.2493 0 0.964651 0 0.616744C0 0.284651 0.292921 0 0.634662 0H2.29455C2.31082 0 2.34337 0 2.35964 0C2.94548 0.015814 3.46623 0.126512 3.90561 0.395349C4.39382 0.695814 4.75183 1.15442 4.94711 1.83442C4.94711 1.85023 4.94711 1.86605 4.96338 1.88186L5.12612 2.51442H19.3653C19.7234 2.51442 20 2.79907 20 3.13116C20 3.19442 19.9837 3.25767 19.9675 3.32093L18.3076 9.82047C18.2425 10.1051 17.9821 10.2949 17.6892 10.2949H7.27421C7.50203 11.1172 7.72986 11.56 8.03906 11.7656C8.41334 12.0028 9.06428 12.0186 10.1546 12.0028H10.1709H17.5264C17.8845 12.0028 18.1611 12.2874 18.1611 12.6195C18.1611 12.9674 17.8682 13.2363 17.5264 13.2363H10.1709C8.82018 13.2521 7.99024 13.2205 7.32303 12.7935C6.63954 12.3507 6.28153 11.5916 5.92352 10.2158L3.74288 2.19814C3.74288 2.18233 3.74288 2.18233 3.72661 2.16651C3.62897 1.8186 3.46623 1.5814 3.2384 1.45488C3.01058 1.31256 2.70138 1.2493 2.34337 1.2493C2.3271 1.2493 2.31082 1.2493 2.29455 1.2493H0.634662ZM15.6225 13.9637C16.4849 13.9637 17.1847 14.6437 17.1847 15.4819C17.1847 16.32 16.4849 17 15.6225 17C14.76 17 14.0602 16.32 14.0602 15.4819C14.0602 14.6437 14.76 13.9637 15.6225 13.9637ZM8.77136 13.9637C9.63385 13.9637 10.3336 14.6437 10.3336 15.4819C10.3336 16.32 9.63385 17 8.77136 17C7.90887 17 7.20911 16.32 7.20911 15.4819C7.20911 14.6437 7.90887 13.9637 8.77136 13.9637ZM5.48413 3.74791L6.93247 9.04558H17.201L18.5517 3.74791H5.48413Z" fill="black"/>
</svg>
